<?xml version="1.0" encoding="UTF-8" standalone="no"?>
<svg viewBox="0 0 300 311.09433" xmlns="http://www.w3.org/2000/svg">
<title>Rubik Simple</title>
<g transform="translate(-185.1953,-289.63353)">
<path d="m393.31504,303.4796-20.46994,4.14763c-11.25848,2.27958-20.68378,4.31932-20.94444,4.53965s7.16783,4.6216 16.50806,9.78117 16.98254,9.37665 16.98254,9.36833c0,0 9.95441-2.48588 22.12078-5.50971l22.12077-5.50946-4.292-1.98094c-2.36075-1.08868-10.53218-4.85989-18.15889-8.39853l-13.86688-6.43814z" fill="#216778"/>
<path d="m344.18317,313.54951-30.91134,6.29377c-16.99372,3.46398-31.38218,6.51306-31.9844,6.76825-.77937.33012 4.17339,3.44708 17.16828,10.81261 10.04495,5.69362 18.46169,10.37375 18.69555,10.40029s13.75372-3.22258 30.04456-7.22245 30.03363-7.44149 30.56041-7.63503c.55097-.20291-6.3679-4.39867-16.3015-9.88418l-17.27156-9.53326z" fill="#216778"/>
<path d="m363.35295,289.63353-18.69529,3.07456c-10.28167,1.6935-19.40494,3.30089-20.28421,3.56987-1.38887.4248-.17689,1.28638 9.2445,6.5206 5.96365,3.31363 10.98196,6.04117 11.16354,6.06666s9.24449-1.76347 20.13983-3.98244 20.03551-4.25038 20.30475-4.49856-4.53991-2.75745-10.68878-5.59217l-11.18434-5.15852z" fill="#216778"/>
<path d="m315.14951,297.59867-33.34622,5.4889c-18.34437,3.01968-33.11991,5.73551-32.83037,6.0253 .58036.58141 24.6337,14.26645 25.13342,14.30027 .17169,0 14.28596-2.83784 31.36528-6.33512s31.28229-6.54896 31.55101-6.78881-4.54096-3.1937-10.68904-6.56196l-11.18408-6.12858z" fill="#216778"/>
<path d="m241.02832,309.83527-23.5445,3.85862c-12.95172,2.12792-23.70736,4.02146-23.89544,4.20954s.0989.61054.63968.92869 6.04195,4.00065 12.21605,8.17144 11.67106,7.58846 12.21579,7.61422 11.39063-2.06809 24.10172-4.66348 23.33041-4.89449 23.58587-5.11743c.25493-.22372-5.33438-3.70513-12.42208-7.71749l-12.89709-7.28411z" fill="#216778"/>
<path d="m436.09176,323.28931-22.26541,5.44754c-13.43401,3.28528-22.01022,5.68218-21.64603,6.04612 .33168.33167 8.58427,4.99749 18.34437,10.37947l17.7463,9.78091 3.65233-.82542c2.00982-.46044 13.38406-2.99652 25.27806-5.63327s21.61481-4.96758 21.60493-5.17934c0-.21071-4.69002-2.52905-10.40003-5.13823s-15.32417-7.01226-21.35754-9.80171l-10.95698-5.07607z" fill="#216778"/>
<path d="m271.87775,328.40674c-.757.17429-11.63412,2.40601-24.16364,4.95249s-23.08172,4.71499-23.44149,4.82841 7.36397,5.56304 17.14773,12.09222l17.78741,11.86513 19.83027-4.86977c10.91406-2.67317 22.45271-5.4915 25.62898-6.27321s5.53781-1.64303 5.2618-1.91904-8.64072-5.11664-18.59227-10.75069c-12.34482-6.98911-18.51944-10.14328-19.45879-9.92554z" fill="#216778"/>
<path d="m384.73103,335.91794-30.53986,7.4493c-16.79706,4.09846-30.54012,7.63008-30.54012,7.84131s7.62801,4.67883 16.94144,9.94609l16.9209,9.57462 31.63347-7.03646c17.39148-3.8789 31.73883-7.18291 31.88113-7.32546s-7.96384-4.80344-18.01425-10.35893l-18.28271-10.09047z" fill="#216778"/>
<path d="m316.53214,352.59092-25.81447,6.35568c-14.20636,3.4952-25.83085,6.52736-25.81446,6.72715 .0442.54056 27.93458,19.16744 28.70328,19.16978 .36316,0 13.27507-2.82145 28.68274-6.27295s28.09795-6.36921 28.20825-6.4795-7.48701-4.53628-16.87953-9.84282l-17.08581-9.65734z" fill="#216778"/>
<path d="m185.2104,322.97975c-.0988.0988.29838,13.23371.86678,29.1986 .89383,25.10663 1.16646,29.19807 2.10477,30.16838 1.27988,1.32384 25.3176,18.27751 25.97965,18.32407 .24974.026.29136-12.97955.10406-28.86848s-.45316-29.26934-.59832-29.73525c-.24973-.80356-28.07532-19.46764-28.4559-19.08732z" fill="#d4aa00"/>
<path d="m218.32978,344.50222-.16648,2.18723c-.091,1.19767.0572,14.63949.33037,29.87963l.49504,27.71269 15.1876,10.66849c8.35301,5.86948 15.22505,10.63077 15.2698,10.58577s.29759-13.5131.55721-29.94155l.47449-29.87963-16.07466-10.60632-16.07467-10.60631z" fill="#d4aa00"/>
<path d="m485.18253,348.73231c-.25493-.25494-54.44492,12.01912-54.84813,12.42233-.29499.295-4.33805,53.65853-4.33337,57.2003 0,1.18024.1821,2.14613.41284,2.14613s11.74598-2.86854 25.58737-6.37623 25.37067-6.55364 25.60817-6.76825c.46331-.41934 7.93549-58.26191 7.57312-58.62428z" fill="#a02c2c"/>
<path d="m424.94878,362.66084c-4.07557.42194-62.95921,13.52454-63.76252,14.21754-.24192.21071-.7674,10.32589-1.15553,22.49226s-.89149,25.76087-1.11416,30.20974-.14308,8.07856.16388,8.06842c.30905,0 14.31458-3.5272 31.11789-7.82077s30.68319-7.94329 30.84942-8.10952c.52314-.5234 4.5818-58.60269 4.12682-59.05767-.026-.026-.0962-.026-.22632,0z" fill="#a02c2c"/>
<path d="m254.42045,368.37684-.22632,29.85908c-.17429,22.42149-.0338,30.08201.55722,30.7667 .95548,1.10922 32.04943,23.0929 32.74764,23.15248 .27237.026.49348-10.87869.4953-24.22555s.20031-27.15469.43339-30.68424l.43339-6.41758-1.75411-.66023c-.95756-.36419-7.91545-4.90463-15.45553-10.09047s-14.48627-9.94036-15.4558-10.56521l-1.77466-1.13498z" fill="#d4aa00"/>
<path d="m355.53244,378.24046c-3.0704-.026-60.67416,13.52688-61.43064,14.44439-.6337.7687-.82542,8.01691-.82542,31.24171 0,16.63656.22372,30.25396.4953,30.25084s13.81485-3.39141 30.10647-7.53175 29.86585-7.78331 30.14783-8.08897 .84415-12.59143 1.25881-27.30011 .90918-28.15466 1.09362-29.87963c.28771-2.69372.16648-3.13075-.84597-3.13648z" fill="#a02c2c"/>
<path d="m187.83103,388.39284c-.46669.46695 1.11781,50.14043 1.69219,53.05292 .34312,1.73928 2.66459,4.0415 12.95874,12.81411l12.54616,10.68904 .16649-9.18259c.0884-5.049-.0598-18.20259-.33012-29.23995l-.4953-20.07792-13.08256-9.22369c-7.1954-5.07137-13.24775-9.03847-13.4543-8.83192z" fill="#d4aa00"/>
<path d="m219.09329,410.03913c-.0806.12746 0,13.37261.2055,29.42543 .27237,22.53621.54057,29.36846 1.1969,30.024 .46746.46721 7.00471,6.10152 14.5271,12.50506l13.68114,11.63803 .41258-14.27946c.22632-7.8512.44926-21.90668.4953-31.2209l.0833-16.92063-15.2287-10.70959c-8.37564-5.88639-15.29243-10.59071-15.37307-10.46194z" fill="#d4aa00"/>
<path d="m476.63962,412.57703c-.77339,0-50.8238,12.55682-51.13389,12.83517-.16649.15088-4.78288,61.87028-4.7873,64.00991 0,.70028.35404,1.09881.82541.92869 .45394-.16389 10.97545-3.0652 23.37958-6.43814s22.93267-6.37623 23.40013-6.66524c.5736-.35457 2.09099-10.26216 4.64293-30.4574 2.08006-16.45992 3.91845-30.88662 4.10653-32.06686 .22372-1.4063.0806-2.14171-.43339-2.14613z" fill="#a02c2c"/>
<path d="m420.71843,426.56773-30.7667,7.82077c-16.9248,4.30163-30.91628,7.94927-31.07653,8.10952-.32101.32101-2.16382,50.90315-2.18723,59.96555l-.026,5.67463 29.40488-8.06842c16.17533-4.44028 29.58671-8.24973 29.79716-8.46044 .37148-.37122 4.79694-57.77467 4.82867-62.62728l.026-2.41433z" fill="#a02c2c"/>
<path d="m253.96651,434.36769c-.16649,0-.29083,14.3372-.2682,31.86057l.0416,31.86058 16.30177,13.80497 16.30176,13.8047 .41258-8.5221c.23152-4.68481.45394-20.00664.4953-34.04807l.0832-25.52545-16.5286-11.61747c-9.09544-6.38767-16.67272-11.61773-16.83817-11.61773z" fill="#d4aa00"/>
<path d="m353.90216,443.94256c-.2669-.2669-60.04697,14.65249-60.35758,15.06351-.052.0676-.2989,15.10852-.55721,33.40813-.46305,32.82413-.47033,33.26714.80486,32.93365l29.6939-8.13033 28.39372-7.77941 .41284-6.99509c.68858-12.14789 1.95103-58.15916 1.60947-58.50046z" fill="#a02c2c"/>
<path d="m189.79142,450.25687c-.026,0-.026.026-.026.0416-.0911.49946.21851,11.54541.70159,24.53511l.88733,23.60641 1.65083,1.81602 12.15413,13.28886 10.52386,11.47309 .2055-12.46344c.11447-6.86242.026-19.04959-.22631-27.07326l-.45394-14.58903-12.62863-10.75069c-7.12932-6.06354-12.38436-10.11752-12.79381-9.88444z" fill="#d4aa00"/>
<path d="m220.31073,475.24592-.20551,12.40153c-.11446,6.83016-.026,19.2858.22632,27.67184l.45394,15.24925 13.61923,14.85722 13.63978,14.85723 .41283-8.64619c.22893-4.75661.45212-18.36179.49505-30.25084l.0832-21.62574-14.36218-12.25715-14.36192-12.25715z" fill="#d4aa00"/>
<path d="m467.08556,482.9015c-2.10919.14568-8.04995,1.69376-22.90483,5.77765-13.0667,3.5925-23.7997,6.57627-23.85433,6.64469s-.89461,11.11801-1.85712,24.55566-1.94193,26.18438-2.16668,28.33207c-.38163,3.64687-.3244,3.88568.84596,3.42523 .68937-.27106 10.76734-4.06438 22.38924-8.41908s21.39603-8.17742 21.72875-8.50155c.63031-.61444 7.13634-49.69715 6.83016-51.52591-.0364-.21592-.308-.33714-1.01115-.28876z" fill="#a02c2c"/>
<path d="m415.45663,496.80948c-.4196-.22632-58.5876,15.70319-58.99576,16.15739-.15348.16909-.6147,12.0467-1.0317,26.39223s-.92869,28.23687-1.13498,30.86998-.20811,4.7873 0,4.7873 13.1541-4.79511 28.76546-10.64768l28.37317-10.62713 .35067-2.08396c.63343-3.94576 4.02823-54.65562 3.67314-54.84813z" fill="#a02c2c"/>
<path d="m253.57449,503.80484c-.31243-.11967-.57777,13.7545-.57777,30.82887v31.05571l16.01275,17.4984c8.80695,9.62794 16.19147,17.51816 16.40504,17.54001 .21331.026.58479-11.59119.82542-25.81446s.43651-29.7493.43313-34.50201l-.026-8.64619-16.26066-13.86661c-8.94534-7.62671-16.50519-13.97276-16.81736-14.09372z" fill="#d4aa00"/>
<path d="m351.71493,514.3906c-.21852-.21851-17.70521,4.47306-57.94325,15.55882-1.08139.29811-1.15579,2.51136-1.15579,34.31601 0,18.77593.26326,33.8808.57803,33.75906l28.72384-10.7507 28.14633-10.52411 .026-4.00326c0-2.1979.42714-16.16051.94924-31.03516s.83088-27.17108.68104-27.32066z" fill="#a02c2c"/>
</g>
</svg>
