<?xml version="1.0" encoding="UTF-8" standalone="no"?>
<svg
   xmlns:dc="http://purl.org/dc/elements/1.1/"
   xmlns:cc="http://creativecommons.org/ns#"
   xmlns:rdf="http://www.w3.org/1999/02/22-rdf-syntax-ns#"
   xmlns:svg="http://www.w3.org/2000/svg"
   xmlns="http://www.w3.org/2000/svg"
   viewBox="0 0 1750 1225"
   height="1225"
   width="1750"
   xml:space="preserve"
   version="1.1"
   id="svg2"><metadata
     id="metadata8"><rdf:RDF><cc:Work
         rdf:about=""><dc:format>image/svg+xml</dc:format><dc:type
           rdf:resource="http://purl.org/dc/dcmitype/StillImage" /></cc:Work></rdf:RDF></metadata><defs
     id="defs6"><clipPath
       id="clipPath14"
       clipPathUnits="userSpaceOnUse"><path
         id="path16"
         d="m 1165,0 583.18,0 0,671 -583.18,0 0,-671 z" /></clipPath><clipPath
       id="clipPath18"
       clipPathUnits="userSpaceOnUse"><path
         id="path20"
         d="M 0,0 583,0 583,671 0,671 0,0 Z" /></clipPath><clipPath
       id="clipPath22"
       clipPathUnits="userSpaceOnUse"><path
         id="path24"
         d="m 1165,670 583.18,0 0,670.707 -583.18,0 0,-670.707 z" /></clipPath><clipPath
       id="clipPath26"
       clipPathUnits="userSpaceOnUse"><path
         id="path28"
         d="m 291,0 1166,0 0,1340.71 -1166,0 L 291,0 Z" /></clipPath><clipPath
       id="clipPath30"
       clipPathUnits="userSpaceOnUse"><path
         id="path32"
         d="m 0,670 583,0 0,670.707 -583,0 L 0,670 Z" /></clipPath><pattern
       id="pattern34"
       height="134.071"
       width="174.818"
       y="0"
       x="0"
       patternUnits="userSpaceOnUse"
       patternTransform="matrix(10,0,0,10,0,415)"><g
         id="g36"
         transform="scale(0.1,0.1)"><g
           id="g38"><g
             id="g40"
             clip-path="url(#clipPath14)"><path
               id="path42"
               style="fill:#63b1c6;fill-opacity:1;fill-rule:nonzero;stroke:none"
               d="m 2314.92,327.184 0,-654.368 -567.07,-327.187 0.34,654.199125 566.73,327.355875" /><path
               id="path44"
               style="fill:none;stroke:#ffffff;stroke-opacity:1;stroke-width:31.9827;stroke-linecap:round;stroke-linejoin:round;stroke-miterlimit:10;stroke-dasharray:none"
               d="m 2314.92,327.184 0,-654.368 -567.07,-327.187 0.34,654.199125 566.73,327.355875 z" /><path
               id="path46"
               style="fill:#2d8ad2;fill-opacity:1;fill-rule:nonzero;stroke:none"
               d="M 2314.92,327.184 1748.19,-0.171875 1181.44,327.184 1748.19,654.359 2314.92,327.184" /><path
               id="path48"
               style="fill:none;stroke:#ffffff;stroke-opacity:1;stroke-width:31.9827;stroke-linecap:round;stroke-linejoin:round;stroke-miterlimit:10;stroke-dasharray:none"
               d="M 2314.92,327.184 1748.19,-0.171875 1181.44,327.184 1748.19,654.359 2314.92,327.184 Z" /><path
               id="path50"
               style="fill:#d249ac;fill-opacity:1;fill-rule:nonzero;stroke:none"
               d="m 1748.19,-0.171875 -0.34,-654.199125 -566.41,327.187 0,654.368 566.75,-327.355875" /><path
               id="path52"
               style="fill:none;stroke:#ffffff;stroke-opacity:1;stroke-width:31.9827;stroke-linecap:round;stroke-linejoin:round;stroke-miterlimit:10;stroke-dasharray:none"
               d="m 1748.19,-0.171875 -0.34,-654.199125 -566.41,327.187 0,654.368 566.75,-327.355875 z" /></g></g><g
           id="g54"><g
             id="g56"
             clip-path="url(#clipPath18)"><path
               id="path58"
               style="fill:#63b1c6;fill-opacity:1;fill-rule:nonzero;stroke:none"
               d="m 566.723,327.184 0,-654.368 L -0.347656,-654.371 0,-0.171875 566.723,327.184" /><path
               id="path60"
               style="fill:none;stroke:#ffffff;stroke-opacity:1;stroke-width:31.9827;stroke-linecap:round;stroke-linejoin:round;stroke-miterlimit:10;stroke-dasharray:none"
               d="m 566.723,327.184 0,-654.368 L -0.347656,-654.371 0,-0.171875 566.723,327.184 Z" /><path
               id="path62"
               style="fill:#2d8ad2;fill-opacity:1;fill-rule:nonzero;stroke:none"
               d="M 566.723,327.184 0,-0.171875 -566.758,327.184 0,654.359 566.723,327.184" /><path
               id="path64"
               style="fill:none;stroke:#ffffff;stroke-opacity:1;stroke-width:31.9827;stroke-linecap:round;stroke-linejoin:round;stroke-miterlimit:10;stroke-dasharray:none"
               d="M 566.723,327.184 0,-0.171875 -566.758,327.184 0,654.359 566.723,327.184 Z" /><path
               id="path66"
               style="fill:#d249ac;fill-opacity:1;fill-rule:nonzero;stroke:none"
               d="M 0,-0.171875 -0.347656,-654.371 -566.758,-327.184 l 0,654.368 L 0,-0.171875" /><path
               id="path68"
               style="fill:none;stroke:#ffffff;stroke-opacity:1;stroke-width:31.9827;stroke-linecap:round;stroke-linejoin:round;stroke-miterlimit:10;stroke-dasharray:none"
               d="M 0,-0.171875 -0.347656,-654.371 -566.758,-327.184 l 0,654.368 L 0,-0.171875 Z" /></g></g><g
           id="g70"><g
             id="g72"
             clip-path="url(#clipPath22)"><path
               id="path74"
               style="fill:#63b1c6;fill-opacity:1;fill-rule:nonzero;stroke:none"
               d="m 2314.92,1667.9 0,-654.37 -567.07,-327.186 0.34,654.196 566.73,327.36" /><path
               id="path76"
               style="fill:none;stroke:#ffffff;stroke-opacity:1;stroke-width:31.9827;stroke-linecap:round;stroke-linejoin:round;stroke-miterlimit:10;stroke-dasharray:none"
               d="m 2314.92,1667.9 0,-654.37 -567.07,-327.186 0.34,654.196 566.73,327.36 z" /><path
               id="path78"
               style="fill:#2d8ad2;fill-opacity:1;fill-rule:nonzero;stroke:none"
               d="m 2314.92,1667.9 -566.73,-327.36 -566.75,327.36 566.75,327.17 566.73,-327.17" /><path
               id="path80"
               style="fill:none;stroke:#ffffff;stroke-opacity:1;stroke-width:31.9827;stroke-linecap:round;stroke-linejoin:round;stroke-miterlimit:10;stroke-dasharray:none"
               d="m 2314.92,1667.9 -566.73,-327.36 -566.75,327.36 566.75,327.17 566.73,-327.17 z" /><path
               id="path82"
               style="fill:#d249ac;fill-opacity:1;fill-rule:nonzero;stroke:none"
               d="m 1748.19,1340.54 -0.34,-654.196 -566.41,327.186 0,654.37 566.75,-327.36" /><path
               id="path84"
               style="fill:none;stroke:#ffffff;stroke-opacity:1;stroke-width:31.9827;stroke-linecap:round;stroke-linejoin:round;stroke-miterlimit:10;stroke-dasharray:none"
               d="m 1748.19,1340.54 -0.34,-654.196 -566.41,327.186 0,654.37 566.75,-327.36 z" /></g></g><g
           id="g86"><g
             id="g88"
             clip-path="url(#clipPath26)"><path
               id="path90"
               style="fill:#63b1c6;fill-opacity:1;fill-rule:nonzero;stroke:none"
               d="m 1440.83,997.539 0,-654.363 L 873.762,15.9922 874.086,670.18 1440.83,997.539" /><path
               id="path92"
               style="fill:none;stroke:#ffffff;stroke-opacity:1;stroke-width:31.9827;stroke-linecap:round;stroke-linejoin:round;stroke-miterlimit:10;stroke-dasharray:none"
               d="m 1440.83,997.539 0,-654.363 L 873.762,15.9922 874.086,670.18 1440.83,997.539 Z" /><path
               id="path94"
               style="fill:#2d8ad2;fill-opacity:1;fill-rule:nonzero;stroke:none"
               d="M 1440.83,997.539 874.086,670.18 307.348,997.539 874.086,1324.72 1440.83,997.539" /><path
               id="path96"
               style="fill:none;stroke:#ffffff;stroke-opacity:1;stroke-width:31.9827;stroke-linecap:round;stroke-linejoin:round;stroke-miterlimit:10;stroke-dasharray:none"
               d="M 1440.83,997.539 874.086,670.18 307.348,997.539 874.086,1324.72 1440.83,997.539 Z" /><path
               id="path98"
               style="fill:#d249ac;fill-opacity:1;fill-rule:nonzero;stroke:none"
               d="M 874.086,670.18 873.762,15.9922 307.348,343.176 l 0,654.363 566.738,-327.359" /><path
               id="path100"
               style="fill:none;stroke:#ffffff;stroke-opacity:1;stroke-width:31.9827;stroke-linecap:round;stroke-linejoin:round;stroke-miterlimit:10;stroke-dasharray:none"
               d="M 874.086,670.18 873.762,15.9922 307.348,343.176 l 0,654.363 566.738,-327.359 z" /></g></g><g
           id="g102"><g
             id="g104"
             clip-path="url(#clipPath30)"><path
               id="path106"
               style="fill:#63b1c6;fill-opacity:1;fill-rule:nonzero;stroke:none"
               d="m 566.723,1667.9 0,-654.37 L -0.347656,686.344 0,1340.54 566.723,1667.9" /><path
               id="path108"
               style="fill:none;stroke:#ffffff;stroke-opacity:1;stroke-width:31.9827;stroke-linecap:round;stroke-linejoin:round;stroke-miterlimit:10;stroke-dasharray:none"
               d="m 566.723,1667.9 0,-654.37 L -0.347656,686.344 0,1340.54 566.723,1667.9 Z" /><path
               id="path110"
               style="fill:#2d8ad2;fill-opacity:1;fill-rule:nonzero;stroke:none"
               d="M 566.723,1667.9 0,1340.54 -566.758,1667.9 0,1995.07 566.723,1667.9" /><path
               id="path112"
               style="fill:none;stroke:#ffffff;stroke-opacity:1;stroke-width:31.9827;stroke-linecap:round;stroke-linejoin:round;stroke-miterlimit:10;stroke-dasharray:none"
               d="M 566.723,1667.9 0,1340.54 -566.758,1667.9 0,1995.07 566.723,1667.9 Z" /><path
               id="path114"
               style="fill:#d249ac;fill-opacity:1;fill-rule:nonzero;stroke:none"
               d="M 0,1340.54 -0.347656,686.344 -566.758,1013.53 l 0,654.37 L 0,1340.54" /><path
               id="path116"
               style="fill:none;stroke:#ffffff;stroke-opacity:1;stroke-width:31.9827;stroke-linecap:round;stroke-linejoin:round;stroke-miterlimit:10;stroke-dasharray:none"
               d="M 0,1340.54 -0.347656,686.344 -566.758,1013.53 l 0,654.37 L 0,1340.54 Z" /></g></g></g></pattern></defs><g
     transform="matrix(1.25,0,0,-1.25,0,1225)"
     id="g10"><g
       transform="scale(0.1,0.1)"
       id="g12"><path
         id="path118"
         style="fill:url(#pattern34);fill-opacity:1;fill-rule:nonzero;stroke:none"
         d="m 0,0 14000,0 0,9800 L 0,9800 0,0 Z" /><path
         id="path120"
         style="fill:#ffffff;fill-opacity:1;fill-rule:nonzero;stroke:none"
         d="m 7173.82,348.789 c 4.55,0 8.74,-3.969 8.74,-3.969 l -75.09,-160.379 c -8.22,0 -27.96,-1.171 -32.78,-1.171 -4.54,0 -8.74,3.972 -8.74,3.972 l -25.68,160.379 c 15.57,0 35.05,1.168 40.88,1.168 4.57,0 8.74,-3.969 8.74,-3.969 l 7.86,-78.461 c 0.67,-6.757 0.72,-16.14 0.45,-26.019 2.53,10.789 5.3,21 8.02,27.89 l 31.22,79.411 c 13.84,0 31.02,1.148 36.36,1.148 l 0.02,0" /><path
         id="path122"
         style="fill:#ffffff;fill-opacity:1;fill-rule:nonzero;stroke:none"
         d="m 7208.1,252.891 c 5.44,1.711 7.07,6.199 7.07,11.328 0,4.832 -1.57,12.051 -7.18,12.051 -10.1,0 -14.54,-16.309 -16.16,-28.54 l 16.27,5.161 z m 43.09,16.781 c 0,-17.461 -9.75,-29.012 -34.04,-34.02 l -25.48,-5.261 c 1.96,-10.981 8.86,-16.352 20.32,-16.352 14.04,0 23.43,10.602 23.43,10.602 0,0 7.17,-4 7.17,-12.2 0,-14.55 -22.32,-30.332 -48.27,-30.332 -26.33,0 -43.52,16.641 -43.52,44.731 0,32.461 23,76.5 63.93,76.5 22.41,0 36.46,-13.27 36.46,-33.668 l 0,0" /><path
         id="path124"
         style="fill:#ffffff;fill-opacity:1;fill-rule:nonzero;stroke:none"
         d="m 7319.81,303.34 c 20.65,0 36.17,-10.938 36.17,-25.16 0,-17.758 -21.52,-24.258 -21.52,-24.258 0,0 -6.3,19.41 -20.77,19.41 -9.8,0 -15.44,-9.922 -15.44,-31.051 0,-19.48 5.12,-28.242 17.72,-28.242 12.93,0 20.88,8.801 20.88,8.801 0,0 7.17,-3.981 7.17,-11.961 0,-13.93 -21.43,-28.77 -46.38,-28.77 -26.57,0 -42.94,16.641 -42.94,44.301 0,32.891 23.52,76.93 65.12,76.93 l -0.01,0" /><path
         id="path126"
         style="fill:#ffffff;fill-opacity:1;fill-rule:nonzero;stroke:none"
         d="m 7419.04,329.262 c 4.97,0 8.28,-3.793 8.28,-3.793 l -3.89,-24.469 25.92,0 -5.85,-18.648 c -1.89,-6 -4.87,-9.321 -10.95,-9.321 l -13.54,0 -7.55,-47.66 c -1.23,-7.711 0.45,-11.269 5.7,-11.332 4.77,-0.027 9.47,2.91 9.47,2.91 0,0 7.23,-4.027 7.23,-11.59 0,-11.668 -16.64,-23.25 -37.7,-23.25 -22.34,0 -31.35,13.672 -27.56,37.582 l 8.43,53.34 -14.05,0 6.12,19.461 c 1.57,4.988 5.69,8.508 10.73,8.508 l 6.83,0 8.19,22.52 c 10.14,2.492 19.58,5.742 24.19,5.742 l 0,0" /><path
         id="path128"
         style="fill:#ffffff;fill-opacity:1;fill-rule:nonzero;stroke:none"
         d="m 7501.77,252.891 c 5.43,1.711 7.06,6.199 7.06,11.328 0,4.832 -1.57,12.051 -7.17,12.051 -10.1,0 -14.57,-16.309 -16.17,-28.54 l 16.28,5.161 z m 43.08,16.781 c 0,-17.461 -9.75,-29.012 -34.04,-34.02 l -25.49,-5.261 c 1.97,-10.981 8.87,-16.352 20.32,-16.352 14.03,0 23.44,10.602 23.44,10.602 0,0 7.17,-4 7.17,-12.2 0,-14.55 -22.32,-30.332 -48.27,-30.332 -26.34,0 -43.52,16.641 -43.52,44.731 0,32.461 22.99,76.5 63.93,76.5 22.42,0 36.46,-13.27 36.46,-33.668 l 0,0" /><path
         id="path130"
         style="fill:#ffffff;fill-opacity:1;fill-rule:nonzero;stroke:none"
         d="m 7605.73,252.891 c 5.43,1.711 7.06,6.199 7.06,11.328 0,4.832 -1.58,12.051 -7.17,12.051 -10.1,0 -14.56,-16.309 -16.17,-28.54 l 16.28,5.161 z m 43.07,16.781 c 0,-17.461 -9.74,-29.012 -34.02,-34.02 l -25.49,-5.261 c 1.96,-10.981 8.86,-16.352 20.31,-16.352 14.05,0 23.43,10.602 23.43,10.602 0,0 7.18,-4 7.18,-12.2 0,-14.55 -22.31,-30.332 -48.26,-30.332 -26.35,0 -43.53,16.641 -43.53,44.731 0,32.461 23.01,76.5 63.93,76.5 22.42,0 36.47,-13.27 36.47,-33.668 l -0.02,0" /><path
         id="path132"
         style="fill:#ffffff;fill-opacity:1;fill-rule:nonzero;stroke:none"
         d="m 7733.85,226.129 c 0,0 8.76,-8.098 8.76,-21.488 0,-17.86 -15.12,-22.532 -27.79,-22.532 -16.52,0 -28.54,7.871 -41.1,12.121 -3.5,-4.039 -6.93,-8.089 -10.22,-12.121 0,0 -18.62,0.473 -18.62,13.153 0,15.461 25.78,41.98 53.55,72.039 -3.2,0.57 -6.27,0.969 -9.05,0.969 -15.79,0 -21.9,-7.891 -21.9,-7.891 0,0 -8.12,9.34 -7.44,21.492 0.92,16.848 16.95,21.469 29.53,21.469 13.35,0 23.14,-5.149 32.77,-9.379 l 7.82,9.379 c 0,0 18.79,-0.578 18.79,-13.32 0,-14.918 -24.95,-40.969 -51.92,-70.04 5.71,-1.601 11.02,-2.89 16.29,-2.89 13.99,0 20.53,9.039 20.53,9.039 l 0,0" /><path
         id="path134"
         style="fill:#ffffff;fill-opacity:1;fill-rule:nonzero;stroke:none"
         d="m 7854.71,192.391 c -6.7,-40.821 -34.68,-61.571 -70.1,-61.571 -22.62,0 -39.5,11.879 -39.5,25.649 0,9.082 7.56,13.293 7.56,13.293 0,0 7.69,-7 22.85,-7 14.22,0 33.49,6.058 36.88,27.519 l 2.66,16.699 c -9.55,-13.73 -22.21,-24.871 -38.2,-24.871 -17.98,0 -25.98,14.704 -21.24,44.59 l 5.11,32.34 c 3.14,19.813 4.01,35.981 4.01,35.981 12.79,2.359 29.65,8.32 35.55,8.32 4.57,0 8.82,-3.809 8.82,-3.809 l -6.41,-40.492 -5.92,-37.348 c -0.55,-3.441 0.11,-5.382 3.23,-5.382 14.89,0 23.29,42.73 23.29,42.73 3.13,19.813 4,35.981 4,35.981 12.77,2.359 29.65,8.32 35.55,8.32 4.58,0 8.82,-3.809 8.82,-3.809 l -6.42,-40.492 -10.54,-66.648" /><path
         id="path136"
         style="fill:#ffffff;fill-opacity:1;fill-rule:nonzero;stroke:none"
         d="m 6150.27,278.41 0,-71.949 16.38,0 c 6.12,0 10.54,0.34 13.26,1.031 3.56,0.887 6.51,2.399 8.86,4.52 2.34,2.129 4.26,5.617 5.74,10.5 1.48,4.847 2.22,11.488 2.22,19.89 0,8.399 -0.74,14.84 -2.22,19.34 -1.48,4.5 -3.56,8 -6.23,10.52 -2.66,2.519 -6.05,4.23 -10.15,5.117 -3.06,0.691 -9.06,1.031 -18.01,1.031 l -9.85,0 z m -21.94,18.379 40.09,0 c 9.05,0 15.94,-0.687 20.68,-2.07 6.37,-1.879 11.83,-5.207 16.38,-10.008 4.54,-4.789 8,-10.66 10.37,-17.59 2.37,-6.949 3.56,-15.512 3.56,-25.68 0,-8.949 -1.11,-16.652 -3.34,-23.132 -2.71,-7.899 -6.59,-14.297 -11.63,-19.188 -3.8,-3.699 -8.94,-6.601 -15.41,-8.672 -4.85,-1.527 -11.32,-2.297 -19.42,-2.297 l -41.28,0 0,108.637" /><path
         id="path138"
         style="fill:#ffffff;fill-opacity:1;fill-rule:nonzero;stroke:none"
         d="m 6281.59,234.25 c -0.15,6.02 -1.7,10.602 -4.67,13.75 -2.96,3.129 -6.57,4.699 -10.82,4.699 -4.54,0 -8.3,-1.66 -11.26,-4.969 -2.97,-3.308 -4.42,-7.8 -4.37,-13.48 l 31.12,0 z m -1.19,-21.051 20.75,-3.48 c -2.66,-7.61 -6.87,-13.41 -12.63,-17.387 -5.76,-3.973 -12.96,-5.961 -21.6,-5.961 -13.69,0 -23.82,4.469 -30.39,13.418 -5.18,7.16 -7.78,16.203 -7.78,27.121 0,13.039 3.41,23.25 10.23,30.641 6.82,7.39 15.44,11.078 25.86,11.078 11.71,0 20.95,-3.867 27.72,-11.59 6.77,-7.738 10,-19.578 9.71,-35.539 l -52.18,0 c 0.15,-6.18 1.83,-10.98 5.04,-14.41 3.22,-3.438 7.22,-5.149 12.01,-5.149 3.26,0 6,0.891 8.23,2.661 2.22,1.777 3.9,4.648 5.03,8.597" /><path
         id="path140"
         style="fill:#ffffff;fill-opacity:1;fill-rule:nonzero;stroke:none"
         d="m 6308.86,210.609 20.9,3.18 c 0.89,-4.047 2.69,-7.129 5.41,-9.219 2.72,-2.109 6.52,-3.148 11.41,-3.148 5.39,0 9.44,0.988 12.16,2.957 1.82,1.383 2.74,3.242 2.74,5.562 0,1.579 -0.5,2.891 -1.48,3.93 -1.04,0.988 -3.36,1.899 -6.97,2.738 -16.8,3.704 -27.44,7.09 -31.94,10.153 -6.22,4.25 -9.34,10.16 -9.34,17.711 0,6.816 2.69,12.547 8.08,17.199 5.38,4.637 13.73,6.957 25.05,6.957 10.77,0 18.77,-1.75 24.01,-5.258 5.24,-3.512 8.84,-8.691 10.82,-15.558 l -19.64,-3.633 c -0.84,3.062 -2.43,5.41 -4.78,7.039 -2.35,1.633 -5.69,2.441 -10.04,2.441 -5.48,0 -9.41,-0.762 -11.78,-2.289 -1.59,-1.09 -2.38,-2.5 -2.38,-4.23 0,-1.481 0.7,-2.739 2.08,-3.782 1.88,-1.379 8.36,-3.328 19.45,-5.847 11.09,-2.52 18.84,-5.61 23.24,-9.27 4.34,-3.703 6.52,-8.863 6.52,-15.48 0,-7.223 -3.02,-13.422 -9.05,-18.602 -6.02,-5.191 -14.94,-7.789 -26.75,-7.789 -10.72,0 -19.2,2.18 -25.45,6.52 -6.25,4.351 -10.34,10.261 -12.27,17.718" /><path
         id="path142"
         style="fill:#ffffff;fill-opacity:1;fill-rule:nonzero;stroke:none"
         d="m 6397.57,188.152 0,78.7 20.83,0 0,-78.7 -20.83,0 z m 0,89.379 0,19.258 20.83,0 0,-19.258 -20.83,0" /><path
         id="path144"
         style="fill:#ffffff;fill-opacity:1;fill-rule:nonzero;stroke:none"
         d="m 6453.38,229.129 c 0,-8.348 1.62,-14.457 4.85,-18.328 3.24,-3.891 7.23,-5.832 11.97,-5.832 5.09,0 9.39,1.992 12.9,5.972 3.5,3.969 5.26,9.868 5.26,17.68 0,8.149 -1.68,14.199 -5.04,18.149 -3.36,3.953 -7.61,5.929 -12.75,5.929 -4.99,0 -9.1,-1.937 -12.34,-5.82 -3.23,-3.879 -4.85,-9.789 -4.85,-17.75 z m -18.6,-46.168 23.79,-2.891 c 0.39,-2.757 1.31,-4.66 2.74,-5.699 1.98,-1.48 5.09,-2.23 9.34,-2.23 5.43,0 9.51,0.82 12.22,2.449 1.83,1.09 3.22,2.84 4.15,5.262 0.65,1.73 0.97,4.918 0.97,9.558 l 0,11.492 c -6.23,-8.5 -14.08,-12.75 -23.57,-12.75 -10.57,0 -18.95,4.469 -25.12,13.418 -4.84,7.059 -7.26,15.852 -7.26,26.379 0,13.192 3.17,23.27 9.52,30.231 6.35,6.972 14.24,10.449 23.68,10.449 9.73,0 17.76,-4.27 24.08,-12.82 l 0,11.043 19.49,0 0,-70.622 c 0,-9.289 -0.76,-16.23 -2.3,-20.82 -1.53,-4.601 -3.68,-8.211 -6.44,-10.82 -2.77,-2.617 -6.46,-4.668 -11.08,-6.16 -4.62,-1.481 -10.46,-2.219 -17.53,-2.219 -13.34,0 -22.8,2.289 -28.38,6.859 -5.58,4.571 -8.38,10.36 -8.38,17.371 0,0.7 0.03,1.539 0.08,2.52" /><path
         id="path146"
         style="fill:#ffffff;fill-opacity:1;fill-rule:nonzero;stroke:none"
         d="m 6597.97,188.152 -20.83,0 0,40.168 c 0,8.5 -0.44,13.993 -1.33,16.481 -0.89,2.5 -2.33,4.441 -4.34,5.82 -2,1.391 -4.41,2.078 -7.22,2.078 -3.61,0 -6.84,-0.988 -9.71,-2.957 -2.87,-1.98 -4.83,-4.601 -5.89,-7.863 -1.06,-3.258 -1.59,-9.289 -1.59,-18.078 l 0,-35.649 -20.83,0 0,78.7 19.34,0 0,-11.563 c 6.87,8.902 15.52,13.34 25.94,13.34 4.6,0 8.8,-0.828 12.6,-2.477 3.8,-1.66 6.68,-3.773 8.63,-6.339 1.95,-2.571 3.31,-5.481 4.08,-8.743 0.76,-3.257 1.15,-7.929 1.15,-14.011 l 0,-48.907" /><path
         id="path148"
         style="fill:#ffffff;fill-opacity:1;fill-rule:nonzero;stroke:none"
         d="m 6662.81,234.25 c -0.15,6.02 -1.7,10.602 -4.67,13.75 -2.96,3.129 -6.57,4.699 -10.82,4.699 -4.54,0 -8.3,-1.66 -11.26,-4.969 -2.97,-3.308 -4.42,-7.8 -4.37,-13.48 l 31.12,0 z m -1.18,-21.051 20.75,-3.48 c -2.67,-7.61 -6.88,-13.41 -12.64,-17.387 -5.76,-3.973 -12.96,-5.961 -21.6,-5.961 -13.69,0 -23.82,4.469 -30.39,13.418 -5.18,7.16 -7.78,16.203 -7.78,27.121 0,13.039 3.41,23.25 10.23,30.641 6.82,7.39 15.44,11.078 25.86,11.078 11.71,0 20.95,-3.867 27.72,-11.59 6.77,-7.738 10,-19.578 9.71,-35.539 l -52.17,0 c 0.14,-6.18 1.82,-10.98 5.03,-14.41 3.22,-3.438 7.22,-5.149 12.01,-5.149 3.26,0 6,0.891 8.23,2.661 2.22,1.777 3.9,4.648 5.04,8.597" /><path
         id="path150"
         style="fill:#ffffff;fill-opacity:1;fill-rule:nonzero;stroke:none"
         d="m 6714.02,229.211 c 0,-8.402 1.16,-14.481 3.49,-18.231 3.36,-5.441 8.05,-8.148 14.08,-8.148 4.79,0 8.87,2.039 12.22,6.098 3.36,4.09 5.04,10.172 5.04,18.281 0,9.039 -1.63,15.539 -4.89,19.519 -3.26,3.981 -7.43,5.969 -12.52,5.969 -4.94,0 -9.08,-1.969 -12.41,-5.886 -3.34,-3.934 -5.01,-9.801 -5.01,-17.602 z m 55.58,-41.059 -19.34,0 0,11.559 c -3.21,-4.492 -7,-7.84 -11.37,-10.039 -4.38,-2.192 -8.79,-3.301 -13.23,-3.301 -9.04,0 -16.79,3.641 -23.23,10.942 -6.45,7.277 -9.68,17.449 -9.68,30.488 0,13.34 3.14,23.48 9.42,30.429 6.27,6.93 14.2,10.399 23.78,10.399 8.8,0 16.41,-3.649 22.83,-10.969 l 0,39.129 20.82,0 0,-108.637" /><path
         id="path152"
         style="fill:#ffffff;fill-opacity:1;fill-rule:nonzero;stroke:none"
         d="m 6846.01,229.211 c 0,-8.148 1.29,-14.18 3.86,-18.082 3.6,-5.539 8.4,-8.297 14.37,-8.297 4.6,0 8.51,1.957 11.75,5.887 3.24,3.922 4.85,10.113 4.85,18.562 0,8.989 -1.63,15.469 -4.89,19.449 -3.26,3.981 -7.43,5.969 -12.52,5.969 -4.99,0 -9.14,-1.937 -12.45,-5.82 -3.31,-3.879 -4.97,-9.77 -4.97,-17.668 z m -20.67,-41.059 0,108.637 20.82,0 0,-39.129 c 6.42,7.32 14.03,10.969 22.83,10.969 9.58,0 17.51,-3.469 23.78,-10.399 6.28,-6.949 9.42,-16.921 9.42,-29.91 0,-13.441 -3.2,-23.789 -9.6,-31.05 -6.4,-7.27 -14.17,-10.899 -23.31,-10.899 -4.49,0 -8.93,1.129 -13.3,3.379 -4.37,2.242 -8.14,5.57 -11.3,9.961 l 0,-11.559 -19.34,0" /><path
         id="path154"
         style="fill:#ffffff;fill-opacity:1;fill-rule:nonzero;stroke:none"
         d="m 6906.04,266.852 22.16,0 18.83,-55.872 18.37,55.872 21.57,0 -27.79,-75.731 -4.97,-13.711 c -1.82,-4.597 -3.57,-8.109 -5.22,-10.531 -1.66,-2.418 -3.56,-4.379 -5.71,-5.879 -2.15,-1.508 -4.79,-2.691 -7.93,-3.531 -3.13,-0.84 -6.68,-1.258 -10.63,-1.258 -4,0 -7.93,0.418 -11.78,1.258 l -1.86,16.312 c 3.26,-0.652 6.2,-0.968 8.82,-0.968 4.84,0 8.43,1.429 10.75,4.257 2.32,2.852 4.1,6.461 5.33,10.86 l -29.94,78.922" /></g></g></svg>